PathFileType	4	(X/Y/Z)	 New Session 104.trc
DataRate	CameraRate	NumFrames	NumMarkers	Units	OrigDataRate	OrigDataStartFrame	OrigNumFrames
100	100	19	14	m	100	1	660
Frame#	Time	C7			T8			IJ			PX			AA			AC			AI			TS			SC			GH			LE			ME			US			RS			
		X1	Y1	Z1	X2	Y2	Z2	X3	Y3	Z3	X4	Y4	Z4	X5	Y5	Z5	X6	Y6	Z6	X7	Y7	Z7	X8	Y8	Z8	X9	Y9	Z9	X10	Y10	Z10	X11	Y11	Z11	X12	Y12	Z12	X13	Y13	Z13	X14	Y14	Z14	
1	0.0100	0.029269	0.099882	0.165068	0.032072	-0.115178	0.229459	0.000000	0.000000	0.000000	-0.002466	-0.142991	-0.069309	0.229338	-0.004259	0.120419	0.174444	0.041234	0.056095	0.115464	0.020567	0.192270	0.114772	-0.096525	0.223842	0.025071	0.008030	0.003978	0.238094	0.007872	0.079053	0.270355	-0.286449	0.018465	0.184036	-0.306151	-0.015024	0.297532	-0.552359	-0.068869	0.360405	-0.518728	-0.099473	
2	0.0200	0.029266	0.099880	0.165048	0.032118	-0.115174	0.229448	0.000003	0.000011	-0.000003	-0.002481	-0.143006	-0.069320	0.229346	-0.004233	0.120370	0.174425	0.041251	0.056072	0.115487	0.020585	0.192249	0.114769	-0.096516	0.223610	0.025050	0.008028	0.003935	0.238075	0.007913	0.079023	0.270330	-0.286382	0.018468	0.184163	-0.306179	-0.014499	0.297597	-0.552315	-0.068909	0.360497	-0.518703	-0.099436	
3	0.0300	0.029265	0.099882	0.165027	0.032159	-0.115167	0.229433	-0.000036	0.000010	-0.000016	-0.002474	-0.143033	-0.069325	0.229357	-0.004202	0.120324	0.174409	0.041272	0.056042	0.115510	0.020604	0.192217	0.114769	-0.096490	0.223523	0.025040	0.008020	0.003901	0.238072	0.007943	0.078994	0.270332	-0.286339	0.018467	0.184292	-0.306141	-0.013817	0.297676	-0.552255	-0.068934	0.360597	-0.518660	-0.099418	
4	0.0400	0.029265	0.099886	0.165003	0.032196	-0.115155	0.229418	-0.000097	-0.000007	-0.000036	-0.002457	-0.143063	-0.069327	0.229369	-0.004161	0.120285	0.174394	0.041299	0.056007	0.115532	0.020630	0.192181	0.114774	-0.096453	0.223523	0.025034	0.008007	0.003877	0.238077	0.007972	0.078963	0.270357	-0.286311	0.018462	0.184406	-0.306066	-0.013153	0.297770	-0.552181	-0.068945	0.360704	-0.518599	-0.099416	
5	0.0500	0.029266	0.099890	0.164975	0.032230	-0.115144	0.229405	-0.000161	-0.000038	-0.000054	-0.002439	-0.143086	-0.069333	0.229381	-0.004109	0.120255	0.174377	0.041332	0.055971	0.115552	0.020664	0.192149	0.114794	-0.096416	0.223538	0.025030	0.007992	0.003862	0.238081	0.008009	0.078925	0.270392	-0.286280	0.018452	0.184486	-0.305989	-0.012637	0.297878	-0.552094	-0.068944	0.360819	-0.518521	-0.099431	
6	0.0600	0.029262	0.099895	0.164950	0.032263	-0.115135	0.229396	-0.000206	-0.000070	-0.000062	-0.002424	-0.143094	-0.069340	0.229391	-0.004050	0.120233	0.174363	0.041369	0.055939	0.115570	0.020707	0.192126	0.114837	-0.096384	0.223538	0.025023	0.007984	0.003852	0.238079	0.008059	0.078889	0.270434	-0.286232	0.018433	0.184549	-0.305921	-0.012187	0.297996	-0.551998	-0.068939	0.360940	-0.518427	-0.099461	
7	0.0700	0.029248	0.099902	0.164932	0.032298	-0.115132	0.229389	-0.000226	-0.000085	-0.000062	-0.002412	-0.143086	-0.069347	0.229396	-0.003991	0.120214	0.174353	0.041404	0.055912	0.115582	0.020749	0.192109	0.114881	-0.096360	0.223512	0.025010	0.007990	0.003849	0.238074	0.008112	0.078858	0.270486	-0.286167	0.018408	0.184592	-0.305872	-0.011894	0.298124	-0.551900	-0.068944	0.361063	-0.518322	-0.099503	
8	0.0800	0.029230	0.099911	0.164920	0.032334	-0.115134	0.229381	-0.000236	-0.000087	-0.000066	-0.002401	-0.143071	-0.069353	0.229396	-0.003942	0.120193	0.174347	0.041432	0.055889	0.115585	0.020781	0.192093	0.114896	-0.096344	0.223455	0.024989	0.007998	0.003846	0.238069	0.008151	0.078832	0.270557	-0.286093	0.018377	0.184613	-0.305849	-0.011836	0.298256	-0.551808	-0.068980	0.361187	-0.518210	-0.099556	
9	0.0900	0.029212	0.099913	0.164901	0.032370	-0.115142	0.229367	-0.000243	-0.000088	-0.000083	-0.002391	-0.143075	-0.069361	0.229390	-0.003905	0.120173	0.174337	0.041450	0.055871	0.115580	0.020798	0.192074	0.114890	-0.096336	0.223395	0.024967	0.007996	0.003834	0.238063	0.008175	0.078809	0.270647	-0.286025	0.018339	0.184626	-0.305846	-0.011933	0.298390	-0.551727	-0.069065	0.361317	-0.518094	-0.099618	
10	0.1000	0.029195	0.099903	0.164875	0.032404	-0.115152	0.229351	-0.000243	-0.000102	-0.000113	-0.002391	-0.143107	-0.069371	0.229378	-0.003878	0.120155	0.174319	0.041465	0.055857	0.115572	0.020805	0.192054	0.114891	-0.096331	0.223355	0.024952	0.007982	0.003815	0.238049	0.008193	0.078789	0.270741	-0.285971	0.018291	0.184641	-0.305848	-0.012080	0.298524	-0.551658	-0.069217	0.361456	-0.517974	-0.099688	
11	0.1100	0.029176	0.099888	0.164849	0.032433	-0.115159	0.229336	-0.000234	-0.000130	-0.000147	-0.002394	-0.143143	-0.069379	0.229363	-0.003854	0.120141	0.174295	0.041483	0.055850	0.115566	0.020811	0.192037	0.114916	-0.096323	0.223341	0.024949	0.007972	0.003797	0.238032	0.008227	0.078778	0.270818	-0.285929	0.018230	0.184648	-0.305838	-0.012245	0.298658	-0.551598	-0.069433	0.361608	-0.517847	-0.099766	
12	0.1200	0.029153	0.099881	0.164832	0.032454	-0.115158	0.229327	-0.000225	-0.000163	-0.000175	-0.002387	-0.143156	-0.069382	0.229348	-0.003822	0.120131	0.174269	0.041510	0.055850	0.115563	0.020824	0.192021	0.114951	-0.096306	0.223340	0.024946	0.007973	0.003786	0.238024	0.008291	0.078780	0.270877	-0.285889	0.018166	0.184647	-0.305808	-0.012454	0.298794	-0.551538	-0.069699	0.361775	-0.517711	-0.099847	
13	0.1300	0.029129	0.099892	0.164819	0.032468	-0.115148	0.229321	-0.000223	-0.000187	-0.000188	-0.002370	-0.143144	-0.069383	0.229332	-0.003776	0.120126	0.174243	0.041551	0.055857	0.115557	0.020849	0.192004	0.114974	-0.096280	0.223339	0.024932	0.007981	0.003781	0.238029	0.008377	0.078789	0.270935	-0.285833	0.018117	0.184652	-0.305765	-0.012706	0.298939	-0.551471	-0.069984	0.361956	-0.517565	-0.099930	
14	0.1400	0.029102	0.099918	0.164803	0.032479	-0.115132	0.229317	-0.000232	-0.000202	-0.000190	-0.002353	-0.143122	-0.069392	0.229316	-0.003718	0.120125	0.174217	0.041598	0.055866	0.115547	0.020880	0.191987	0.114980	-0.096249	0.223327	0.024895	0.007990	0.003777	0.238037	0.008462	0.078789	0.271011	-0.285756	0.018092	0.184663	-0.305715	-0.012983	0.299097	-0.551394	-0.070260	0.362149	-0.517413	-0.100012	
15	0.1500	0.029069	0.099948	0.164782	0.032490	-0.115113	0.229308	-0.000261	-0.000230	-0.000194	-0.002348	-0.143104	-0.069416	0.229300	-0.003656	0.120125	0.174193	0.041642	0.055874	0.115534	0.020914	0.191970	0.114977	-0.096222	0.223299	0.024838	0.008005	0.003775	0.238040	0.008531	0.078782	0.271101	-0.285669	0.018079	0.184664	-0.305658	-0.013259	0.299268	-0.551306	-0.070520	0.362353	-0.517259	-0.100091	
16	0.1600	0.029031	0.099968	0.164757	0.032503	-0.115097	0.229296	-0.000313	-0.000278	-0.000211	-0.002358	-0.143108	-0.069443	0.229284	-0.003602	0.120124	0.174172	0.041678	0.055878	0.115520	0.020945	0.191955	0.114975	-0.096206	0.223260	0.024785	0.008023	0.003766	0.238031	0.008582	0.078778	0.271193	-0.285586	0.018061	0.184642	-0.305591	-0.013517	0.299444	-0.551211	-0.070760	0.362562	-0.517107	-0.100165	
17	0.1700	0.028992	0.099970	0.164730	0.032517	-0.115086	0.229280	-0.000385	-0.000316	-0.000227	-0.002373	-0.143131	-0.069452	0.229265	-0.003562	0.120122	0.174151	0.041706	0.055880	0.115503	0.020969	0.191946	0.114980	-0.096201	0.223217	0.024765	0.008031	0.003747	0.238010	0.008623	0.078783	0.271282	-0.285514	0.018037	0.184608	-0.305512	-0.013782	0.299624	-0.551106	-0.070974	0.362772	-0.516958	-0.100230	
18	0.1800	0.028955	0.099958	0.164708	0.032528	-0.115079	0.229266	-0.000458	-0.000313	-0.000228	-0.002382	-0.143164	-0.069433	0.229244	-0.003531	0.120121	0.174132	0.041732	0.055883	0.115485	0.020981	0.191940	0.114988	-0.096202	0.223177	0.024769	0.008023	0.003726	0.237987	0.008670	0.078797	0.271362	-0.285445	0.018009	0.184590	-0.305436	-0.014044	0.299807	-0.550990	-0.071141	0.362974	-0.516809	-0.100288	
19	0.1900	0.028922	0.099945	0.164693	0.032538	-0.115075	0.229254	-0.000504	-0.000282	-0.000217	-0.002380	-0.143198	-0.069402	0.229225	-0.003499	0.120129	0.174111	0.041761	0.055890	0.115466	0.020987	0.191939	0.114995	-0.096206	0.223143	0.024769	0.008004	0.003714	0.237967	0.008731	0.078818	0.271431	-0.285371	0.017978	0.184609	-0.305377	-0.014256	0.299998	-0.550857	-0.071238	0.363163	-0.516658	-0.100341	
